<svg id="visual" viewBox="0 0 900 600" width="900" height="600" xmlns="http://www.w3.org/2000/svg" xmlns:xlink="http://www.w3.org/1999/xlink" version="1.1"><rect x="0" y="0" width="900" height="600" fill="#001220"></rect><path d="M759 600L761 592.3C763 584.7 767 569.3 768.7 554C770.3 538.7 769.7 523.3 757.2 508C744.7 492.7 720.3 477.3 716.2 461.8C712 446.3 728 430.7 725.2 415.2C722.3 399.7 700.7 384.3 693.7 369C686.7 353.7 694.3 338.3 694.3 323C694.3 307.7 686.7 292.3 694.8 277C703 261.7 727 246.3 741.2 231C755.3 215.7 759.7 200.3 753.3 184.8C747 169.3 730 153.7 718.5 138.2C707 122.7 701 107.3 703 92C705 76.7 715 61.3 717.8 46C720.7 30.7 716.3 15.3 714.2 7.7L712 0L900 0L900 7.7C900 15.3 900 30.7 900 46C900 61.3 900 76.7 900 92C900 107.3 900 122.7 900 138.2C900 153.7 900 169.3 900 184.8C900 200.3 900 215.7 900 231C900 246.3 900 261.7 900 277C900 292.3 900 307.7 900 323C900 338.3 900 353.7 900 369C900 384.3 900 399.7 900 415.2C900 430.7 900 446.3 900 461.8C900 477.3 900 492.7 900 508C900 523.3 900 538.7 900 554C900 569.3 900 584.7 900 592.3L900 600Z" fill="#06cc55"></path><path d="M725 600L733.3 592.3C741.7 584.7 758.3 569.3 757.2 554C756 538.7 737 523.3 735.5 508C734 492.7 750 477.3 749.7 461.8C749.3 446.3 732.7 430.7 729.5 415.2C726.3 399.7 736.7 384.3 747.5 369C758.3 353.7 769.7 338.3 775.2 323C780.7 307.7 780.3 292.3 781.2 277C782 261.7 784 246.3 778.2 231C772.3 215.7 758.7 200.3 755.2 184.8C751.7 169.3 758.3 153.7 759.5 138.2C760.7 122.7 756.3 107.3 750 92C743.7 76.7 735.3 61.3 740 46C744.7 30.7 762.3 15.3 771.2 7.7L780 0L900 0L900 7.7C900 15.3 900 30.7 900 46C900 61.3 900 76.7 900 92C900 107.3 900 122.7 900 138.2C900 153.7 900 169.3 900 184.8C900 200.3 900 215.7 900 231C900 246.3 900 261.7 900 277C900 292.3 900 307.7 900 323C900 338.3 900 353.7 900 369C900 384.3 900 399.7 900 415.2C900 430.7 900 446.3 900 461.8C900 477.3 900 492.7 900 508C900 523.3 900 538.7 900 554C900 569.3 900 584.7 900 592.3L900 600Z" fill="#15d45e"></path><path d="M765 600L771.2 592.3C777.3 584.7 789.7 569.3 789.5 554C789.3 538.7 776.7 523.3 772.8 508C769 492.7 774 477.3 776.8 461.8C779.7 446.3 780.3 430.7 785.3 415.2C790.3 399.7 799.7 384.3 797.5 369C795.3 353.7 781.7 338.3 778.8 323C776 307.7 784 292.3 788.2 277C792.3 261.7 792.7 246.3 785.2 231C777.7 215.7 762.3 200.3 764.7 184.8C767 169.3 787 153.7 791.5 138.2C796 122.7 785 107.3 777.3 92C769.7 76.7 765.3 61.3 766.8 46C768.3 30.7 775.7 15.3 779.3 7.7L783 0L900 0L900 7.7C900 15.3 900 30.7 900 46C900 61.3 900 76.7 900 92C900 107.3 900 122.7 900 138.2C900 153.7 900 169.3 900 184.8C900 200.3 900 215.7 900 231C900 246.3 900 261.7 900 277C900 292.3 900 307.7 900 323C900 338.3 900 353.7 900 369C900 384.3 900 399.7 900 415.2C900 430.7 900 446.3 900 461.8C900 477.3 900 492.7 900 508C900 523.3 900 538.7 900 554C900 569.3 900 584.7 900 592.3L900 600Z" fill="#20dd67"></path><path d="M811 600L808.2 592.3C805.3 584.7 799.7 569.3 794 554C788.3 538.7 782.7 523.3 779.7 508C776.7 492.7 776.3 477.3 777.3 461.8C778.3 446.3 780.7 430.7 784.2 415.2C787.7 399.7 792.3 384.3 799 369C805.7 353.7 814.3 338.3 809 323C803.7 307.7 784.3 292.3 781.7 277C779 261.7 793 246.3 801.3 231C809.7 215.7 812.3 200.3 807.2 184.8C802 169.3 789 153.7 782.8 138.2C776.7 122.7 777.3 107.3 782.3 92C787.3 76.7 796.7 61.3 802.2 46C807.7 30.7 809.3 15.3 810.2 7.7L811 0L900 0L900 7.7C900 15.3 900 30.7 900 46C900 61.3 900 76.7 900 92C900 107.3 900 122.7 900 138.2C900 153.7 900 169.3 900 184.8C900 200.3 900 215.7 900 231C900 246.3 900 261.7 900 277C900 292.3 900 307.7 900 323C900 338.3 900 353.7 900 369C900 384.3 900 399.7 900 415.2C900 430.7 900 446.3 900 461.8C900 477.3 900 492.7 900 508C900 523.3 900 538.7 900 554C900 569.3 900 584.7 900 592.3L900 600Z" fill="#28e570"></path><path d="M837 600L830.5 592.3C824 584.7 811 569.3 806.2 554C801.3 538.7 804.7 523.3 811.7 508C818.7 492.7 829.3 477.3 830.8 461.8C832.3 446.3 824.7 430.7 822.2 415.2C819.7 399.7 822.3 384.3 826.3 369C830.3 353.7 835.7 338.3 838 323C840.3 307.7 839.7 292.3 831.8 277C824 261.7 809 246.3 803 231C797 215.7 800 200.3 802.2 184.8C804.3 169.3 805.7 153.7 809 138.2C812.3 122.7 817.7 107.3 817 92C816.3 76.7 809.7 61.3 811.5 46C813.3 30.7 823.7 15.3 828.8 7.7L834 0L900 0L900 7.7C900 15.3 900 30.7 900 46C900 61.3 900 76.7 900 92C900 107.3 900 122.7 900 138.2C900 153.7 900 169.3 900 184.8C900 200.3 900 215.7 900 231C900 246.3 900 261.7 900 277C900 292.3 900 307.7 900 323C900 338.3 900 353.7 900 369C900 384.3 900 399.7 900 415.2C900 430.7 900 446.3 900 461.8C900 477.3 900 492.7 900 508C900 523.3 900 538.7 900 554C900 569.3 900 584.7 900 592.3L900 600Z" fill="#30ee79"></path><path d="M847 600L848.8 592.3C850.7 584.7 854.3 569.3 857.2 554C860 538.7 862 523.3 860.7 508C859.3 492.7 854.7 477.3 851.2 461.8C847.7 446.3 845.3 430.7 841.2 415.2C837 399.7 831 384.3 830.7 369C830.3 353.7 835.7 338.3 835.5 323C835.3 307.7 829.7 292.3 833.2 277C836.7 261.7 849.3 246.3 854.3 231C859.3 215.7 856.7 200.3 855.5 184.8C854.3 169.3 854.7 153.7 855.7 138.2C856.7 122.7 858.3 107.3 857 92C855.7 76.7 851.3 61.3 846.5 46C841.7 30.7 836.3 15.3 833.7 7.7L831 0L900 0L900 7.7C900 15.3 900 30.7 900 46C900 61.3 900 76.7 900 92C900 107.3 900 122.7 900 138.2C900 153.7 900 169.3 900 184.8C900 200.3 900 215.7 900 231C900 246.3 900 261.7 900 277C900 292.3 900 307.7 900 323C900 338.3 900 353.7 900 369C900 384.3 900 399.7 900 415.2C900 430.7 900 446.3 900 461.8C900 477.3 900 492.7 900 508C900 523.3 900 538.7 900 554C900 569.3 900 584.7 900 592.3L900 600Z" fill="#36f682"></path><path d="M884 600L882.8 592.3C881.7 584.7 879.3 569.3 878.2 554C877 538.7 877 523.3 876.8 508C876.7 492.7 876.3 477.3 873.2 461.8C870 446.3 864 430.7 860.5 415.2C857 399.7 856 384.3 859.2 369C862.3 353.7 869.7 338.3 874.3 323C879 307.7 881 292.3 878.7 277C876.3 261.7 869.7 246.3 868.3 231C867 215.7 871 200.3 874.5 184.8C878 169.3 881 153.7 879.7 138.2C878.3 122.7 872.7 107.3 871.3 92C870 76.7 873 61.3 875.2 46C877.3 30.7 878.7 15.3 879.3 7.7L880 0L900 0L900 7.7C900 15.3 900 30.7 900 46C900 61.3 900 76.7 900 92C900 107.3 900 122.7 900 138.2C900 153.7 900 169.3 900 184.8C900 200.3 900 215.7 900 231C900 246.3 900 261.7 900 277C900 292.3 900 307.7 900 323C900 338.3 900 353.7 900 369C900 384.3 900 399.7 900 415.2C900 430.7 900 446.3 900 461.8C900 477.3 900 492.7 900 508C900 523.3 900 538.7 900 554C900 569.3 900 584.7 900 592.3L900 600Z" fill="#3dff8b"></path></svg>