<svg id="visual" viewBox="0 0 900 600" width="900" height="600" xmlns="http://www.w3.org/2000/svg" xmlns:xlink="http://www.w3.org/1999/xlink" version="1.1"><rect x="0" y="0" width="900" height="600" fill="#001220"></rect><path d="M170 0L164 7.7C158 15.3 146 30.7 143.3 46C140.7 61.3 147.3 76.7 159 92C170.7 107.3 187.3 122.7 185.3 138.2C183.3 153.7 162.7 169.3 163.5 184.8C164.3 200.3 186.7 215.7 197.7 231C208.7 246.3 208.3 261.7 198.3 277C188.3 292.3 168.7 307.7 156.3 323C144 338.3 139 353.7 146 369C153 384.3 172 399.7 185.5 415.2C199 430.7 207 446.3 204.7 461.8C202.3 477.3 189.7 492.7 177.8 508C166 523.3 155 538.7 162.7 554C170.3 569.3 196.7 584.7 209.8 592.3L223 600L0 600L0 592.3C0 584.7 0 569.3 0 554C0 538.7 0 523.3 0 508C0 492.7 0 477.3 0 461.8C0 446.3 0 430.7 0 415.2C0 399.7 0 384.3 0 369C0 353.7 0 338.3 0 323C0 307.7 0 292.3 0 277C0 261.7 0 246.3 0 231C0 215.7 0 200.3 0 184.8C0 169.3 0 153.7 0 138.2C0 122.7 0 107.3 0 92C0 76.7 0 61.3 0 46C0 30.7 0 15.3 0 7.7L0 0Z" fill="#3dff8b"></path><path d="M123 0L122 7.7C121 15.3 119 30.7 120.5 46C122 61.3 127 76.7 133 92C139 107.3 146 122.7 147 138.2C148 153.7 143 169.3 137.3 184.8C131.7 200.3 125.3 215.7 123.7 231C122 246.3 125 261.7 125.3 277C125.7 292.3 123.3 307.7 121.3 323C119.3 338.3 117.7 353.7 116.7 369C115.7 384.3 115.3 399.7 115.7 415.2C116 430.7 117 446.3 118 461.8C119 477.3 120 492.7 133.2 508C146.3 523.3 171.7 538.7 172.2 554C172.7 569.3 148.3 584.7 136.2 592.3L124 600L0 600L0 592.3C0 584.7 0 569.3 0 554C0 538.7 0 523.3 0 508C0 492.7 0 477.3 0 461.8C0 446.3 0 430.7 0 415.2C0 399.7 0 384.3 0 369C0 353.7 0 338.3 0 323C0 307.7 0 292.3 0 277C0 261.7 0 246.3 0 231C0 215.7 0 200.3 0 184.8C0 169.3 0 153.7 0 138.2C0 122.7 0 107.3 0 92C0 76.7 0 61.3 0 46C0 30.7 0 15.3 0 7.7L0 0Z" fill="#37f883"></path><path d="M166 0L165 7.7C164 15.3 162 30.7 155.2 46C148.3 61.3 136.7 76.7 137.7 92C138.7 107.3 152.3 122.7 153 138.2C153.7 153.7 141.3 169.3 138.3 184.8C135.3 200.3 141.7 215.7 136.7 231C131.7 246.3 115.3 261.7 115.7 277C116 292.3 133 307.7 135.5 323C138 338.3 126 353.7 123.3 369C120.7 384.3 127.3 399.7 133.3 415.2C139.3 430.7 144.7 446.3 147 461.8C149.3 477.3 148.7 492.7 147 508C145.3 523.3 142.7 538.7 144.2 554C145.7 569.3 151.3 584.7 154.2 592.3L157 600L0 600L0 592.3C0 584.7 0 569.3 0 554C0 538.7 0 523.3 0 508C0 492.7 0 477.3 0 461.8C0 446.3 0 430.7 0 415.2C0 399.7 0 384.3 0 369C0 353.7 0 338.3 0 323C0 307.7 0 292.3 0 277C0 261.7 0 246.3 0 231C0 215.7 0 200.3 0 184.8C0 169.3 0 153.7 0 138.2C0 122.7 0 107.3 0 92C0 76.7 0 61.3 0 46C0 30.7 0 15.3 0 7.7L0 0Z" fill="#32f07b"></path><path d="M125 0L121 7.7C117 15.3 109 30.7 102.5 46C96 61.3 91 76.7 91.2 92C91.3 107.3 96.7 122.7 102.5 138.2C108.3 153.7 114.7 169.3 116.7 184.8C118.7 200.3 116.3 215.7 116.5 231C116.7 246.3 119.3 261.7 118.5 277C117.7 292.3 113.3 307.7 111.3 323C109.3 338.3 109.7 353.7 105.7 369C101.7 384.3 93.3 399.7 89.8 415.2C86.3 430.7 87.7 446.3 88.5 461.8C89.3 477.3 89.7 492.7 97.7 508C105.7 523.3 121.3 538.7 124.7 554C128 569.3 119 584.7 114.5 592.3L110 600L0 600L0 592.3C0 584.7 0 569.3 0 554C0 538.7 0 523.3 0 508C0 492.7 0 477.3 0 461.8C0 446.3 0 430.7 0 415.2C0 399.7 0 384.3 0 369C0 353.7 0 338.3 0 323C0 307.7 0 292.3 0 277C0 261.7 0 246.3 0 231C0 215.7 0 200.3 0 184.8C0 169.3 0 153.7 0 138.2C0 122.7 0 107.3 0 92C0 76.7 0 61.3 0 46C0 30.7 0 15.3 0 7.7L0 0Z" fill="#2be974"></path><path d="M71 0L78.2 7.7C85.3 15.3 99.7 30.7 107.7 46C115.7 61.3 117.3 76.7 117 92C116.7 107.3 114.3 122.7 113.7 138.2C113 153.7 114 169.3 106.5 184.8C99 200.3 83 215.7 77 231C71 246.3 75 261.7 76 277C77 292.3 75 307.7 74.2 323C73.3 338.3 73.7 353.7 81.7 369C89.7 384.3 105.3 399.7 105.8 415.2C106.3 430.7 91.7 446.3 86.5 461.8C81.3 477.3 85.7 492.7 88.2 508C90.7 523.3 91.3 538.7 91.7 554C92 569.3 92 584.7 92 592.3L92 600L0 600L0 592.3C0 584.7 0 569.3 0 554C0 538.7 0 523.3 0 508C0 492.7 0 477.3 0 461.8C0 446.3 0 430.7 0 415.2C0 399.7 0 384.3 0 369C0 353.7 0 338.3 0 323C0 307.7 0 292.3 0 277C0 261.7 0 246.3 0 231C0 215.7 0 200.3 0 184.8C0 169.3 0 153.7 0 138.2C0 122.7 0 107.3 0 92C0 76.7 0 61.3 0 46C0 30.7 0 15.3 0 7.7L0 0Z" fill="#25e16c"></path><path d="M75 0L75.5 7.7C76 15.3 77 30.7 75.5 46C74 61.3 70 76.7 70.7 92C71.3 107.3 76.7 122.7 79.2 138.2C81.7 153.7 81.3 169.3 81.2 184.8C81 200.3 81 215.7 83.5 231C86 246.3 91 261.7 90.5 277C90 292.3 84 307.7 81.2 323C78.3 338.3 78.7 353.7 78.3 369C78 384.3 77 399.7 74.5 415.2C72 430.7 68 446.3 63.8 461.8C59.7 477.3 55.3 492.7 55.8 508C56.3 523.3 61.7 538.7 63.8 554C66 569.3 65 584.7 64.5 592.3L64 600L0 600L0 592.3C0 584.7 0 569.3 0 554C0 538.7 0 523.3 0 508C0 492.7 0 477.3 0 461.8C0 446.3 0 430.7 0 415.2C0 399.7 0 384.3 0 369C0 353.7 0 338.3 0 323C0 307.7 0 292.3 0 277C0 261.7 0 246.3 0 231C0 215.7 0 200.3 0 184.8C0 169.3 0 153.7 0 138.2C0 122.7 0 107.3 0 92C0 76.7 0 61.3 0 46C0 30.7 0 15.3 0 7.7L0 0Z" fill="#1dda64"></path><path d="M33 0L35.3 7.7C37.7 15.3 42.3 30.7 44.7 46C47 61.3 47 76.7 49.3 92C51.7 107.3 56.3 122.7 57.3 138.2C58.3 153.7 55.7 169.3 51 184.8C46.3 200.3 39.7 215.7 39.3 231C39 246.3 45 261.7 49 277C53 292.3 55 307.7 55.8 323C56.7 338.3 56.3 353.7 54.3 369C52.3 384.3 48.7 399.7 48.3 415.2C48 430.7 51 446.3 55.2 461.8C59.3 477.3 64.7 492.7 63.8 508C63 523.3 56 538.7 52.8 554C49.7 569.3 50.3 584.7 50.7 592.3L51 600L0 600L0 592.3C0 584.7 0 569.3 0 554C0 538.7 0 523.3 0 508C0 492.7 0 477.3 0 461.8C0 446.3 0 430.7 0 415.2C0 399.7 0 384.3 0 369C0 353.7 0 338.3 0 323C0 307.7 0 292.3 0 277C0 261.7 0 246.3 0 231C0 215.7 0 200.3 0 184.8C0 169.3 0 153.7 0 138.2C0 122.7 0 107.3 0 92C0 76.7 0 61.3 0 46C0 30.7 0 15.3 0 7.7L0 0Z" fill="#14d35d"></path><path d="M36 0L33.8 7.7C31.7 15.3 27.3 30.7 26.7 46C26 61.3 29 76.7 28.7 92C28.3 107.3 24.7 122.7 26.2 138.2C27.7 153.7 34.3 169.3 37.3 184.8C40.3 200.3 39.7 215.7 39.2 231C38.7 246.3 38.3 261.7 36.7 277C35 292.3 32 307.7 30.7 323C29.3 338.3 29.7 353.7 29.8 369C30 384.3 30 399.7 29.3 415.2C28.7 430.7 27.3 446.3 26.8 461.8C26.3 477.3 26.7 492.7 26.3 508C26 523.3 25 538.7 24.2 554C23.3 569.3 22.7 584.7 22.3 592.3L22 600L0 600L0 592.3C0 584.7 0 569.3 0 554C0 538.7 0 523.3 0 508C0 492.7 0 477.3 0 461.8C0 446.3 0 430.7 0 415.2C0 399.7 0 384.3 0 369C0 353.7 0 338.3 0 323C0 307.7 0 292.3 0 277C0 261.7 0 246.3 0 231C0 215.7 0 200.3 0 184.8C0 169.3 0 153.7 0 138.2C0 122.7 0 107.3 0 92C0 76.7 0 61.3 0 46C0 30.7 0 15.3 0 7.7L0 0Z" fill="#06cc55"></path></svg>